HIERARCHY
ROOT Hips
{
  OFFSET -4.35178 90.3298 111.633
  CHANNELS 6 Xposition Yposition Zposition Zrotation Xrotation Yrotation
  JOINT LeftUpLeg
  {
    OFFSET 0.103456 1.85784 10.5485
    CHANNELS 6 Xposition Yposition Zposition Zrotation Xrotation Yrotation
    JOINT LeftLeg
    {
      OFFSET 43.5 -4.2e-05 0
      CHANNELS 6 Xposition Yposition Zposition Zrotation Xrotation Yrotation
      JOINT LeftFoot
      {
        OFFSET 42.3722 1.9e-05 0
        CHANNELS 6 Xposition Yposition Zposition Zrotation Xrotation Yrotation
        JOINT LeftToe
        {
          OFFSET 17.3 0 0
          CHANNELS 6 Xposition Yposition Zposition Zrotation Xrotation Yrotation
          End Site
          {
            OFFSET 0 0 0
          }
        }
      }
    }
  }
  JOINT RightUpLeg
  {
    OFFSET 0.103456 1.85782 -10.5485
    CHANNELS 6 Xposition Yposition Zposition Zrotation Xrotation Yrotation
    JOINT RightLeg
    {
      OFFSET 43.5 -2.7e-05 0
      CHANNELS 6 Xposition Yposition Zposition Zrotation Xrotation Yrotation
      JOINT RightFoot
      {
        OFFSET 42.3723 0 0
        CHANNELS 6 Xposition Yposition Zposition Zrotation Xrotation Yrotation
        JOINT RightToe
        {
          OFFSET 17.3 0 1.7e-05
          CHANNELS 6 Xposition Yposition Zposition Zrotation Xrotation Yrotation
          End Site
          {
            OFFSET 0 0 0
          }
        }
      }
    }
  }
  JOINT Spine
  {
    OFFSET 6.90197 -2.60373 0
    CHANNELS 6 Xposition Yposition Zposition Zrotation Xrotation Yrotation
    JOINT Spine1
    {
      OFFSET 12.5881 0 0
      CHANNELS 6 Xposition Yposition Zposition Zrotation Xrotation Yrotation
      JOINT Spine2
      {
        OFFSET 12.3432 -1.8e-05 0
        CHANNELS 6 Xposition Yposition Zposition Zrotation Xrotation Yrotation
        JOINT Neck
        {
          OFFSET 25.8329 2.3e-05 0
          CHANNELS 6 Xposition Yposition Zposition Zrotation Xrotation Yrotation
          JOINT Head
          {
            OFFSET 11.7666 0 0
            CHANNELS 6 Xposition Yposition Zposition Zrotation Xrotation Yrotation
            End Site
            {
              OFFSET 0 0 0
            }
          }
        }
        JOINT LeftShoulder
        {
          OFFSET 19.7459 -1.48035 6.0001
          CHANNELS 6 Xposition Yposition Zposition Zrotation Xrotation Yrotation
          JOINT LeftArm
          {
            OFFSET 11.2841 1.8e-05 -2e-05
            CHANNELS 6 Xposition Yposition Zposition Zrotation Xrotation Yrotation
            JOINT LeftForeArm
            {
              OFFSET 33 -1.3e-05 1.9e-05
              CHANNELS 6 Xposition Yposition Zposition Zrotation Xrotation Yrotation
              JOINT LeftHand
              {
                OFFSET 25.2 3.2e-05 1.1e-05
                CHANNELS 6 Xposition Yposition Zposition Zrotation Xrotation Yrotation
                End Site
                {
                  OFFSET 0 0 0
                }
              }
            }
          }
        }
        JOINT RightShoulder
        {
          OFFSET 19.7461 -1.48036 -6.00008
          CHANNELS 6 Xposition Yposition Zposition Zrotation Xrotation Yrotation
          JOINT RightArm
          {
            OFFSET 11.2841 0 0
            CHANNELS 6 Xposition Yposition Zposition Zrotation Xrotation Yrotation
            JOINT RightForeArm
            {
              OFFSET 33.0001 1.6e-05 0
              CHANNELS 6 Xposition Yposition Zposition Zrotation Xrotation Yrotation
              JOINT RightHand
              {
                OFFSET 25.1998 0.000123 0.000432
                CHANNELS 6 Xposition Yposition Zposition Zrotation Xrotation Yrotation
                End Site
                {
                  OFFSET 0 0 0
                }
              }
            }
          }
        }
      }
    }
  }
}
MOTION
Frames:	10
Frame Time:	0.0333333
18.7238 149.841 119.008 49.7081 74.1353 40.4629 0.103456 1.85784 10.5485 -15.4842 10.5677 -175.084 43.5 -4.2e-05 1e-05 -23.8182 0.242512 -3.54092 42.3722 1.9e-05 0 50.4458 -7.07509 0.682196 17.3 2.84217e-14 3e-06 21.4546 -1e-06 0.003093 0.103456 1.85782 -10.5485 -4.67373 -15.0905 176.206 43.5 -2.7e-05 4e-06 -59.2685 10.8062 5.54822 42.3723 7.10543e-15 1e-05 99.0074 2.14938 -1.92048 17.3 -6e-06 1.7e-05 21.4546 -1.9e-05 -0.003116 6.90197 -2.60373 -3e-06 9.89037 0.666002 -0.690205 12.5881 1e-05 8e-06 9.76353 1.31678 -1.46981 12.3432 -1.8e-05 -5e-06 9.42969 1.36844 -1.53258 25.8329 2.3e-05 7e-06 2.44449 -2.09377 -9.19863 11.7666 -8e-06 -6e-06 8.20438 0.29306 1.91516 19.7459 -1.48035 6.0001 -169.141 6.62768 -77.6575 11.2841 1.8e-05 -2e-05 13.9697 -6.04258 56.2373 33 -1.3e-05 1.9e-05 -38.4411 0.772338 -9.9621 25.2 3.2e-05 1.1e-05 -0.686036 32.3498 -3.62207 19.7461 -1.48036 -6.00008 -179.669 3.62983 80.7616 11.2841 -1.42109e-14 -1e-06 -33.0149 -13.4364 -43.5207 33.0001 1.6e-05 -1e-06 -67.7855 -3.5069 13.7997 25.1998 0.000123 0.000432 -18.514 -20.1099 10.7565 
18.609 147.49 121.543 47.0793 74.6046 43.0348 0.103456 1.85784 10.5485 -12.5524 13.7643 -176.048 43.5 -4.2e-05 1e-05 -18.9744 -1.39679 -4.85736 42.3722 1.9e-05 -5.32907e-15 47.3462 -8.92385 -0.0214868 17.3 0 3e-06 21.4546 -1e-06 0.003093 0.103456 1.85782 -10.5485 -5.50646 -15.0493 174.654 43.5 -2.7e-05 4e-06 -65.753 10.4709 6.46518 42.3723 7.10543e-15 1e-05 100.976 2.44232 -1.50301 17.3 -6e-06 1.7e-05 21.4546 -1.9e-05 -0.003116 6.90197 -2.60373 -3e-06 9.86616 0.46279 -0.53339 12.5881 1e-05 8e-06 9.71474 0.941065 -1.11965 12.3432 -1.8e-05 -5e-06 9.38531 1.01443 -1.15993 25.8329 2.3e-05 7e-06 2.21582 -2.08992 -9.32613 11.7666 -8e-06 -6e-06 7.58115 0.396055 1.5455 19.7459 -1.48035 6.0001 -168.297 6.53036 -77.5542 11.2841 1.8e-05 -2e-05 14.774 -5.08344 56.1973 33 -1.3e-05 1.9e-05 -39.6056 0.64173 -9.35225 25.2 3.2e-05 1.1e-05 -0.573549 32.5252 -3.54237 19.7461 -1.48036 -6.00008 -179.537 4.48475 80.4647 11.2841 2.13163e-14 -1e-06 -31.8208 -13.8017 -42.2365 33.0001 1.6e-05 -1e-06 -69.6786 -3.67882 14.6358 25.1998 0.000123 0.000432 -18.3506 -20.1194 10.7549 
18.3819 144.838 124.186 41.3592 75.6019 48.401 0.103456 1.85784 10.5485 -9.82449 17.0493 -177.025 43.5 -4.2e-05 1e-05 -16.4057 -3.44926 -5.77224 42.3722 1.9e-05 0 45.6716 -10.199 0.923382 17.3 0 3e-06 21.4546 -1e-06 0.003093 0.103456 1.85782 -10.5485 -5.23896 -15.603 173.289 43.5 -2.7e-05 4e-06 -71.4354 10.0193 7.76568 42.3723 7.10543e-15 1e-05 103.279 2.70972 -0.681151 17.3 -6e-06 1.7e-05 21.4546 -1.9e-05 -0.003116 6.90197 -2.60373 -3e-06 9.86387 0.206154 -0.312235 12.5881 1e-05 8e-06 9.71124 0.471181 -0.631759 12.3432 -1.8e-05 -5e-06 9.3872 0.575632 -0.643954 25.8329 2.3e-05 7e-06 1.88962 -2.15714 -9.36596 11.7666 -8e-06 -6e-06 6.60593 0.335159 1.44908 19.7459 -1.48035 6.0001 -167.701 6.24165 -77.3291 11.2841 1.8e-05 -2e-05 14.8706 -3.85511 55.4188 33 -1.3e-05 1.9e-05 -41.6035 0.318056 -8.21529 25.2 3.2e-05 1.1e-05 -0.882105 32.9649 -3.50041 19.7461 -1.48036 -6.00008 -179.132 5.40107 79.8664 11.2841 -1.42109e-14 -1e-06 -30.1871 -14.09 -41.0011 33.0001 1.6e-05 -1e-06 -71.3767 -3.84796 15.471 25.1998 0.000123 0.000432 -18.5167 -20.2377 10.9263 
18.0867 141.99 126.957 33.377 76.7105 55.9079 0.103456 1.85784 10.5485 -7.45233 18.8459 -177.827 43.5 -4.2e-05 1e-05 -15.8631 -5.10719 -6.25702 42.3722 1.9e-05 7.10543e-15 44.7852 -11.1028 2.96288 17.3 -2.84217e-14 3e-06 21.4546 -1e-06 0.003093 0.103456 1.85782 -10.5485 -4.39305 -16.1731 172.184 43.5 -2.7e-05 4e-06 -76.8732 9.56001 9.22356 42.3723 1.42109e-14 1e-05 105.382 2.81775 0.204196 17.3 -6e-06 1.7e-05 21.4546 -1.9e-05 -0.003116 6.90197 -2.60373 -3e-06 9.84439 0.00755523 -0.0968996 12.5881 1e-05 8e-06 9.67428 0.115433 -0.166271 12.3432 -1.8e-05 -5e-06 9.35393 0.248832 -0.157374 25.8329 2.3e-05 7e-06 1.58589 -2.06676 -9.43798 11.7666 -8e-06 -6e-06 5.80613 0.481438 1.58954 19.7459 -1.48035 6.0001 -167.324 5.93759 -77.026 11.2841 1.8e-05 -2e-05 14.5565 -2.63472 54.1241 33 -1.3e-05 1.9e-05 -43.9508 0.0409807 -7.04445 25.2 3.2e-05 1.1e-05 -1.81039 33.6128 -3.54843 19.7461 -1.48036 -6.00008 -178.63 6.43464 79.2428 11.2841 -1.42109e-14 -1e-06 -28.436 -13.9784 -40.2952 33.0001 1.6e-05 -1e-06 -72.2631 -3.60334 15.936 25.1998 0.000123 0.000432 -18.4296 -20.2219 11.0302 
17.8295 138.997 129.854 24.057 77.7657 64.8857 0.103456 1.85784 10.5485 -5.57109 18.1804 -178.418 43.5 -4.2e-05 1e-05 -16.786 -5.21769 -6.45343 42.3722 1.9e-05 0 43.7242 -10.79 4.19808 17.3 0 3e-06 21.4546 -1e-06 0.003093 0.103456 1.85782 -10.5485 -3.70252 -16.1259 170.766 43.5 -2.7e-05 4e-06 -82.8818 8.5211 11.2157 42.3723 7.10543e-15 1e-05 106.204 2.15977 1.33127 17.3 -6e-06 1.7e-05 21.4546 -1.9e-05 -0.003116 6.90197 -2.60373 -3e-06 9.73688 -0.0746778 0.0406741 12.5881 1e-05 8e-06 9.4603 -0.025356 0.122637 12.3432 -1.8e-05 -5e-06 9.141 0.122935 0.139614 25.8329 2.3e-05 7e-06 1.40692 -1.37591 -9.64255 11.7666 -8e-06 -6e-06 5.74258 1.30675 2.3116 19.7459 -1.48035 6.0001 -167.12 5.74679 -76.761 11.2841 1.8e-05 -2e-05 14.3014 -1.85415 52.9567 33 -1.3e-05 1.9e-05 -45.8342 -0.0391828 -6.3491 25.2 3.2e-05 1.1e-05 -2.94952 34.2501 -3.76434 19.7461 -1.48036 -6.00008 -178.053 7.42244 78.246 11.2841 -1.42109e-14 -1e-06 -26.6576 -13.8466 -39.864 33.0001 1.6e-05 -1e-06 -72.0606 -3.41891 16.066 25.1998 0.000123 0.000432 -18.1046 -20.1434 11.0498 
17.6411 135.739 132.807 12.2251 78.4506 76.4536 0.103456 1.85784 10.5485 -4.10165 16.4998 -178.633 43.5 -4.2e-05 1e-05 -19.4844 -3.23829 -6.95586 42.3722 1.9e-05 0 47.9851 -3.95662 4.73565 17.3 0 3e-06 21.4546 -1e-06 0.003093 0.103456 1.85782 -10.5485 -3.53405 -15.4071 168.533 43.5 -2.7e-05 4e-06 -90.4267 6.68442 13.711 42.3723 0 1e-05 104.888 -0.959192 3.22183 17.3 -6e-06 1.7e-05 21.4546 -1.9e-05 -0.003116 6.90197 -2.60373 -3e-06 9.63663 -0.184465 0.136735 12.5881 1e-05 8e-06 9.26205 -0.228948 0.333629 12.3432 -1.8e-05 -5e-06 8.94501 -0.0702119 0.362719 25.8329 2.3e-05 7e-06 1.22862 -1.48228 -9.37064 11.7666 -8e-06 -6e-06 5.03274 0.88585 2.88481 19.7459 -1.48035 6.0001 -167.217 5.34646 -76.5341 11.2841 1.8e-05 -2e-05 14.4014 -1.82272 52.3809 33 -1.3e-05 1.9e-05 -46.8016 -0.169355 -6.08321 25.2 3.2e-05 1.1e-05 -3.61682 34.6182 -4.06475 19.7461 -1.48036 -6.00008 -177.3 7.75925 77.3404 11.2841 1.42109e-14 -1e-06 -24.9638 -13.3032 -39.706 33.0001 1.6e-05 -1e-06 -70.7019 -3.41366 15.86 25.1998 0.000123 0.000432 -17.6793 -19.9874 10.957 
17.558 132.214 135.701 -0.536883 78.2964 89.0807 0.103456 1.85784 10.5485 -3.08615 14.6122 -179.276 43.5 -4.2e-05 1e-05 -24.4806 -3.03167 -6.53732 42.3722 1.9e-05 -7.10543e-15 66.2654 -0.333585 4.64157 17.3 0 3e-06 21.4546 -1e-06 0.003093 0.103456 1.85782 -10.5485 -4.19605 -13.1241 164.938 43.5 -2.7e-05 4e-06 -99.8917 3.58736 16.4827 42.3723 0 1e-05 101.514 -8.87587 7.2285 17.3 -6e-06 1.7e-05 21.4546 -1.9e-05 -0.003116 6.90197 -2.60373 -3e-06 9.65186 -0.279595 0.143049 12.5881 1e-05 8e-06 9.29503 -0.416752 0.363607 12.3432 -1.8e-05 -5e-06 8.98074 -0.255283 0.404274 25.8329 2.3e-05 7e-06 1.24451 -1.93919 -8.86238 11.7666 -8e-06 -6e-06 3.24222 -0.200719 3.5651 19.7459 -1.48035 6.0001 -167.622 5.0922 -76.4914 11.2841 1.8e-05 -2e-05 14.8731 -2.74734 52.5822 33 -1.3e-05 1.9e-05 -46.513 -0.0874496 -6.45974 25.2 3.2e-05 1.1e-05 -3.54546 34.5769 -4.36143 19.7461 -1.48036 -6.00008 -176.585 7.43238 76.5083 11.2841 -1.42109e-14 -1e-06 -23.569 -12.385 -39.8517 33.0001 1.6e-05 -1e-06 -68.0528 -3.78801 15.4017 25.1998 0.000123 0.000432 -17.4189 -19.8752 10.8818 
17.8032 129.257 138.082 -14.4693 77.8261 103.95 0.103456 1.85784 10.5485 -3.61992 14.0364 178.308 43.5 -4.2e-05 1e-05 -29.8957 -3.90627 -4.64506 42.3722 1.9e-05 0 76.8221 2.6672 4.82109 17.3 -1.42109e-14 3e-06 21.4546 -1e-06 0.003093 0.103456 1.85782 -10.5485 -5.83763 -8.5988 159.713 43.5 -2.7e-05 4e-06 -108.835 -1.39706 19.1091 42.3723 0 1e-05 99.0988 -20.5287 12.5392 17.3 -6e-06 1.7e-05 21.4546 -1.9e-05 -0.003116 6.90197 -2.60373 -3e-06 9.58651 -0.388203 -0.171629 12.5881 1e-05 8e-06 9.1674 -0.691621 -0.243718 12.3432 -1.8e-05 -5e-06 8.85975 -0.569081 -0.184886 25.8329 2.3e-05 7e-06 1.82451 -1.25157 -9.09663 11.7666 -8e-06 -6e-06 2.77204 0.294391 4.91733 19.7459 -1.48035 6.0001 -168.693 5.29833 -76.3732 11.2841 1.8e-05 -2e-05 14.4281 -4.10797 52.254 33 -1.3e-05 1.9e-05 -43.8993 -0.276285 -7.56979 25.2 3.2e-05 1.1e-05 -3.0316 33.7977 -4.50379 19.7461 -1.48036 -6.00008 -176.606 7.21927 74.9508 11.2841 1.42109e-14 -1e-06 -23.3408 -11.9921 -40.4492 33.0001 1.6e-05 -1e-06 -62.7132 -4.53391 14.4985 25.1998 0.000123 0.000432 -17.1286 -20.3148 11.3122 
17.9157 127.653 140.056 -26.6424 76.5107 117.271 0.103456 1.85784 10.5485 -5.1211 13.6198 175.616 43.5 -4.2e-05 1e-05 -36.6764 -4.29595 -1.54792 42.3722 1.9e-05 7.10543e-15 81.3866 4.34137 4.77138 17.3 0 3e-06 21.4546 -1e-06 0.003093 0.103456 1.85782 -10.5485 -7.68056 -5.12055 156.387 43.5 -2.7e-05 4e-06 -115.584 -3.75297 18.7448 42.3723 0 1e-05 99.4747 -25.7292 16.4105 17.3 -6e-06 1.7e-05 21.4546 -1.9e-05 -0.003116 6.90197 -2.60373 -3e-06 9.61578 -0.520434 -0.525654 12.5881 1e-05 8e-06 9.22764 -1.01852 -0.924367 12.3432 -1.8e-05 -5e-06 8.92737 -0.936488 -0.843874 25.8329 2.3e-05 7e-06 2.52239 -0.65722 -9.43153 11.7666 -8e-06 -6e-06 4.07528 0.844031 5.63175 19.7459 -1.48035 6.0001 -170.673 5.32595 -76.1816 11.2841 1.8e-05 -2e-05 12.4488 -6.04037 52.4357 33 -1.3e-05 1.9e-05 -38.7056 -0.310253 -9.53782 25.2 3.2e-05 1.1e-05 -1.91044 32.7533 -4.67177 19.7461 -1.48036 -6.00008 -177.216 6.70839 73.2252 11.2841 0 -1e-06 -24.1834 -11.0361 -41.3101 33.0001 1.6e-05 -1e-06 -53.7946 -5.27254 13.1493 25.1998 0.000123 0.000432 -16.1527 -20.0777 11.1923 
17.7866 127.45 142.113 -30.3499 75.1587 121.344 0.103456 1.85784 10.5485 -4.91408 12.2136 174.553 43.5 -4.2e-05 1e-05 -39.8194 -4.21849 0.284562 42.3722 1.9e-05 0 81.9463 3.62071 4.87108 17.3 -2.84217e-14 3e-06 21.4546 -1e-06 0.003093 0.103456 1.85782 -10.5485 -10.4369 -5.31558 157.825 43.5 -2.7e-05 4e-06 -120.101 3.42809 13.8228 42.3723 1.42109e-14 1e-05 101.512 -20.7521 18.4197 17.3 -6e-06 1.7e-05 21.4546 -1.9e-05 -0.003116 6.90197 -2.60373 -3e-06 9.87232 -0.322191 -0.606673 12.5881 1e-05 8e-06 9.73722 -0.635072 -1.1197 12.3432 -1.8e-05 -5e-06 9.43132 -0.558177 -1.06247 25.8329 2.3e-05 7e-06 2.37845 -1.23107 -9.27438 11.7666 -8e-06 -6e-06 7.66019 0.104979 4.53152 19.7459 -1.48035 6.0001 -172.43 5.78093 -76.1702 11.2841 1.8e-05 -2e-05 11.1996 -8.73453 54.5492 33 -1.3e-05 1.9e-05 -34.8723 -0.569691 -11.0057 25.2 3.2e-05 1.1e-05 -0.104416 32.0432 -4.99193 19.7461 -1.48036 -6.00008 -177.647 5.54045 72.5888 11.2841 -1.42109e-14 -1e-06 -24.8773 -9.79519 -42.5322 33.0001 1.6e-05 -1e-06 -44.5856 -5.43604 11.7304 25.1998 0.000123 0.000432 -13.1611 -18.1673 9.39109 
